<?xml version="1.0" encoding="UTF-8"?><svg id="a" xmlns="http://www.w3.org/2000/svg" width="600" height="600" xmlns:xlink="http://www.w3.org/1999/xlink" viewBox="0 0 600 600"><defs><style>.c{fill:none;}.d{fill:#f2e5cc;}.e{fill:#f2e3c7;}.f{fill:#f5ebd6;}.g{fill:#f5edd9;}.h{fill:#e8d1a3;}.i{fill:#eddeba;}.j{fill:#e3c78c;}.k{fill:#fff;}.l{fill:#e5cc99;}.m{fill:red;}.n{fill:#faf2e5;}.o{fill:#ebd4a8;}.p{fill:#eddbb8;}.q{fill:#deba75;}.r{fill:#cc942b;}.s{fill:#d4a852;}.t{fill:#e0bf80;}.u{fill:#dbb56b;}.v{fill:#d67321;}.w{clip-path:url(#b);}</style><clipPath id="b"><rect class="c" x="60.5745" width="478.851" height="600"/></clipPath></defs><g class="w"><path class="r" d="M316.5576,600h-30.608c-.762-.487-1.608-.13-2.409-.24h-4.736c-11.377-.093-22.472-2.217-33.485-4.799-25.276-5.927-48.917-15.866-70.984-29.516-12.768-7.897-24.67-16.951-35.782-27.093-17.748-16.198-32.697-34.639-44.885-55.316-15.1-25.617-25.219-53.081-30.063-82.467-1.506-9.137-2.464-18.311-2.431-27.582,.141-3.761-.187-7.507-.238-11.262,0-119.548-.001-239.093,.013-358.639,0-1.018-.248-2.072,.225-3.062h477.767c.474,.99,.225,2.044,.225,3.063,.014,120.306,.013,240.612,.013,360.916v6.759c.461,24.819-4.795,48.596-13.067,71.827-7.927,22.262-18.985,42.855-33.076,61.79-8.723,11.722-18.342,22.644-29.093,32.602-14.173,13.126-29.587,24.469-46.401,33.942-16.821,9.477-34.558,16.712-53.145,21.876-10.222,2.84-20.581,5.03-31.119,6.301-3.468,.419-6.974,.419-10.461,.66h-3.353c-.966,.122-1.973-.266-2.907,.24"/><path class="j" d="M539.0135,364.4363c-.024-1.833-.069-3.666-.069-5.499-.003-119.638-.003-239.275-.003-358.913,.147,.104,.499-.242,.483,.24-.02,.637-.005,1.276-.005,1.915V364.4153c-.126,.183-.261,.199-.406,.021"/><path class="p" d="M61.1749,.0242c.035,.955,.1,1.91,.1,2.864,.005,118.835,.004,237.67,.001,356.505,0,.876-.054,1.751-.082,2.627-.166,.307-.331,.307-.497,.001,0-119.948-.001-239.895,.029-359.842,0-.701-.551-1.624,.449-2.155"/><path class="i" d="M60.6966,362.0208h.497c.219,3.832,.628,7.658,.394,11.506-.515-.695-.338-1.516-.42-2.29-.09-.85,.127-1.758-.471-2.512v-6.704Z"/><path class="e" d="M539.4197,371.1186l-.196,.041-.199-.012c-.187-1.28-.086-2.56-.008-3.841,.119-.327,.253-.333,.403-.019v3.831Z"/><path class="o" d="M539.4197,367.2879c-.134,.017-.268,.023-.403,.019-.001-.957-.002-1.914-.003-2.871,.135,0,.271-.007,.406-.021v2.873Z"/><path class="u" d="M316.5576,600c.889-.718,1.92-.456,2.917-.426,.156,.113,.2,.214,.135,.303-.061,.082-.122,.123-.183,.123h-2.869Z"/><path class="s" d="M283.5292,599.5583c.832,.009,1.711-.24,2.421,.442h-2.392c-.186-.086-.253-.18-.199-.283,.055-.106,.111-.159,.17-.159"/><path class="f" d="M278.7763,600c-.004-.143-.008-.286-.013-.43,.633,.005,1.266,.01,1.899,.015,.331,.118,.34,.256,.027,.415h-1.913Z"/><path class="i" d="M319.4271,600c-.004-.144,.012-.286,.048-.426h1.881c.183,.102,.241,.199,.176,.291-.063,.09-.127,.135-.192,.135h-1.913Z"/><path class="h" d="M280.6892,600c.002-.139-.007-.277-.027-.415,.478-.004,.955-.007,1.432-.01,.332,.119,.342,.261,.03,.425h-1.435Z"/><path class="q" d="M282.124,600c.001-.143-.009-.285-.029-.426,.478-.005,.957-.011,1.435-.016,.016,.147,.025,.294,.029,.442h-1.435Z"/><path class="n" d="M321.3401,600c-.004-.143,.001-.285,.016-.427,.475-.002,.95-.006,1.426-.008-.004,.145-.007,.29-.007,.435h-1.435Z"/><path class="k" d="M171.402,543.5012c-2.215-1.13-4.099-2.743-6.045-4.25-42.111-32.601-69.754-74.687-82.488-126.479-3.013-12.252-4.808-24.714-5.542-37.324-.872-14.989-.282-29.989-.441-44.984-.004-.317,.053-.635,.082-.953,.564-1.337,1.418-2.441,2.432-3.492,11.344-11.749,22.728-23.458,34.113-35.167,10.107-10.394,20.181-20.822,30.262-31.241,10.637-10.992,21.3-21.958,31.936-32.949,8.919-9.216,17.746-18.522,26.767-27.638,.849-.858,1.564-2.12,3.133-1.802,1.048,.831,1.171,2.069,1.296,3.238,1.238,11.583,5.205,22.339,10.109,32.762,7.912,16.816,18.115,32.221,29.358,46.968,4.642,6.087,9.469,12.017,14.404,17.867,1.388,1.644,2.86,2.224,4.931,2.219,19.283-.047,38.566-.029,57.849-.028,4.383,0,8.773-.159,13.145,.057,2.755,.137,4.656-.934,6.481-2.807,4.477-4.595,8.24-9.729,11.679-15.111,9.209-14.412,16.525-29.672,20.237-46.472,2.368-10.714,2.931-21.543,2.366-32.534-.754-14.701-3.626-29.084-5.645-43.595-2.093-15.038-.994-29.739,4.592-43.939,2.627-6.678,6.589-12.546,11.676-17.632,3.205-3.205,6.416-6.406,9.898-9.926-2.101-.351-3.787,.215-5.455,.368-7.808,.714-15.412,2.373-22.74,5.228-8.651,3.37-15.224,9.459-21.254,16.245-3.713,4.177-6.955,8.72-10.059,13.363-.529,.791-1.09,1.715-2.21,1.554-1.114-.161-1.43-1.201-1.712-2.105-4.204-13.483-5.42-27.011-.521-40.614,.109-.303,.266-.578,.438-.842,.204-.485,.632-.855,.712-1.165-.028,.215-.363,.504-.581,.864-3.122,2.827-6.583,5.22-9.658,8.134-5.355,5.075-8.866,11.193-11.45,17.962-1.137,2.976-2.389,5.909-3.336,8.955-.213,.685-.474,1.359-.939,1.922-.777,.941-1.448,.854-1.973-.242-.347-.725-.488-1.514-.644-2.295-1.193-5.941-1.767-11.966-2.396-17.982-.124-1.187-.122-2.39,.259-3.551,.404-.881,1.036-1.61,1.72-2.265,5.007-4.789,9.523-10.056,14.439-14.93,8.365-8.296,16.425-16.89,24.66-25.312,10.18-10.4109,20.146-21.035,30.468-31.309,1.525-1.518,2.365-3.918,4.964-4.174,.799-.507,1.694-.365,2.561-.365,45.988-.004,91.975-.004,137.962-.003,.24,0,.479-.006,.718,.002q1.773,.056,1.822,1.923c.014,.558,.003,1.117,.003,1.676,0,52.428,.001,104.8549-.005,157.283,0,1.115-.081,2.23-.124,3.344-.579,1.325-1.4,2.452-2.416,3.505-11.507,11.92-23.073,23.782-34.6151,35.667-10.154,10.456-20.285,20.936-30.424,31.406-10.4171,10.758-20.853,21.496-31.26,32.262-10.131,10.48-20.281,20.94-30.421,31.41-10.417,10.757-20.733,21.612-31.295,32.229-1.182,1.188-2.098,2.61-3.314,3.767-.861,.82-1.659,1.754-2.985,1.821-1.371-.081-2.314-1.001-3.337-1.741-3.298-2.386-6.726-4.55-10.327-6.459-1.711-.907-2.697-.653-3.56,1.137-1.697,3.519-3.161,7.149-5.026,10.588-1.426,2.632-2.013,2.919-4.723,1.801-4.725-1.95-9.543-3.568-14.545-4.655-2.591-.563-3.18-1.464-2.788-4.081,.591-3.942,1.416-7.846,2.012-11.787,.366-2.42,.091-2.735-2.361-3.042-8.006-1.001-16.014-.997-24.018,.005-2.416,.302-2.642,.637-2.222,3.122,.638,3.773,1.375,7.529,1.969,11.309,.471,2.991-.149,3.91-3.112,4.551-4.611,.997-9.057,2.475-13.403,4.297-3.283,1.377-4.271,.948-5.783-2.294-1.583-3.398-3.353-6.705-4.969-10.086-.696-1.456-1.565-1.803-3.022-1.022-7.492,4.016-14.366,8.857-20.348,14.936-1.078,1.096-1.012,1.924,.014,3.026,2.614,2.808,5.735,5.066,8.351,7.868,2.376,2.546,2.519,3.51,.278,6.119-3.178,3.7-6.044,7.609-8.561,11.787-1.306,2.168-2.406,2.452-4.82,1.352-3.556-1.62-6.844-3.759-10.385-5.413-2.361-1.103-2.49-1.11-3.638,1.197-3.651,7.334-5.976,15.102-7.536,23.126-.364,1.871,.295,2.581,2.127,2.835,3.942,.547,7.899,1.013,11.814,1.739,2.778,.515,3.241,1.027,3.065,3.827-.33,5.25-.381,10.488,.08,15.734,.198,2.251-.447,3.04-2.69,3.425-4.08,.7-8.19,1.223-12.291,1.782-1.875,.255-2.375,1.01-2.049,2.855,1.425,8.067,3.914,15.778,7.463,23.147,1.079,2.241,1.372,2.329,3.676,1.179,3.564-1.779,7.013-3.779,10.57-5.574,2.356-1.189,3.246-1.066,4.475,1.252,1.756,3.311,4.441,6.03,5.897,9.516,.012,.874-.498,1.507-1.064,2.063-2.105,2.065-3.904,4.425-6.003,6.476-8.6,8.403-16.76,17.234-25.169,25.823-11.191,11.43-22.173,23.066-33.46,34.404-1.291,1.297-2.295,2.856-3.652,4.099-.705,.645-1.357,1.382-2.453,1.253"/><path class="m" d="M357.1794,351.6056c28.456-29.367,56.914-58.733,85.368-88.101,26.347-27.193,52.691-54.39,79.041-81.58,.661-.683,1.377-1.312,2.068-1.966,.037,1.036,.105,2.071,.105,3.107,.005,59.046-.066,118.092,.037,177.137,.045,26.266-4.189,51.749-13.011,76.468-8.469,23.731-20.656,45.38-36.443,65.007-14.151,17.594-30.578,32.714-49.293,45.308-23.741,15.976-49.593,27.035-77.599,32.997-10.061,2.142-20.211,3.556-30.471,4.335-9.951,.756-19.906,.831-29.844,.234-18.919-1.138-37.425-4.607-55.47-10.495-20.826-6.796-40.249-16.402-58.255-28.887-.717-.498-1.503-.916-2.01-1.669,6.849-7.105,13.684-14.225,20.551-21.314,16.946-17.496,33.907-34.979,50.861-52.467,2.592,.307,3.585,2.426,4.545,4.341,.893,1.782-.591,3.008-1.752,4.063-2.773,2.52-5.534,5.047-8.159,7.727-1.12,1.144-1.213,2.029-.038,3.205,6.086,6.094,13.094,10.899,20.607,15.026,1.326,.728,2.029,.229,2.614-.985,1.593-3.305,3.344-6.53,4.79-9.91,1.782-4.164,2.329-4.341,6.415-2.598,4.191,1.788,8.537,3.086,12.959,4.169,3.171,.777,3.664,1.56,3.165,4.737-.595,3.783-1.263,7.554-2,11.31-.345,1.757,.03,2.681,1.958,2.899,8.266,.933,16.521,.953,24.785-.016,1.809-.212,2.412-.953,2.024-2.843-.801-3.905-1.469-7.84-2.078-11.781-.419-2.714,.053-3.517,2.662-4.166,5.116-1.273,10.12-2.842,14.974-4.919,2.102-.9,2.991-.531,4.08,1.549,1.813,3.461,3.577,6.949,5.129,10.543,1.18,2.732,1.567,2.895,4.064,1.492,6.831-3.84,13.302-8.195,18.873-13.771,2.298-2.3,2.306-2.34-.072-4.7-2.546-2.527-4.997-5.148-7.739-7.478-2.082-1.769-2.247-3.002-.438-5.096,3.507-4.058,6.619-8.374,9.389-12.964,1.098-1.818,2.247-2.019,4.291-.917,3.297,1.779,6.64,3.469,9.914,5.294,2.869,1.6,3.11,1.496,4.494-1.375,3.521-7.303,5.914-14.969,7.342-22.95,.279-1.563-.009-2.335-1.77-2.563-4.107-.53-8.213-1.091-12.3-1.768-2.611-.432-3.228-.978-2.964-3.65,.52-5.262,.469-10.491-.008-15.75-.236-2.599,.35-3.147,3.03-3.626,4.078-.729,8.192-1.238,12.296-1.787,1.593-.212,2-.907,1.726-2.4-1.486-8.128-3.817-15.979-7.53-23.383-1.209-2.41-1.416-2.461-3.828-1.309-3.527,1.684-6.821,3.81-10.37,5.453-2.398,1.109-3.195,.979-4.563-1.239-2.686-4.356-5.685-8.468-8.969-12.391-1.98-2.366-1.921-3.38,.385-5.476,2.834-2.575,5.606-5.206,8.323-7.903,1.223-1.214,1.333-2.16,.035-3.379-1.569-1.473-3.071-3.014-4.717-4.407-.72-.609-1.467-1.286-1.209-2.422"/><path class="m" d="M380.7193,16.0984c-14.92,15.417-29.838,30.836-44.76,46.251-9.708,10.028-19.421,20.051-29.138,30.071-.551,.568-1.155,1.085-1.735,1.626-1.45-.806-1.348-2.25-1.402-3.579-.374-9.319,.793-18.448,3.258-27.441,2.321-8.467,5.044-16.795,8.413-25.338-1.984,.652-3.561,1.423-5.103,2.309-12.28,7.058-21.431,17.283-28.753,29.163-11.933,19.362-19.002,40.488-21.75,63.052-.316,2.597-.709,5.215-.618,7.861,.039,1.116-.064,2.24-.728,3.215-4.275,5.268-9.211,9.909-14.008,14.679-.836,.833-1.585,2.153-3.181,1.426-1.184-1.17-1.169-2.752-1.372-4.221-1.529-11.059-.842-22,1.864-32.821,.076-.307,.272-.573,.376-.865,.049-.157,.153-.303,.156-.443-6.407,6.164-12.19,12.83-17.365,20.01-9.856,13.673-16.502,28.655-18.234,45.592-.252,2.46-.038,4.937-.139,7.403-.047,1.157,.149,2.454-1.176,3.154-42.205,43.567-84.41,87.135-126.622,130.696-.548,.566-1.002,1.243-1.735,1.613-.028-1.116-.08-2.233-.08-3.349-.004-102.293-.005-204.586,.002-306.879,0-3.959-.429-3.538,3.62-3.539,98.979-.006,197.959-.006,296.939,.009,1.092,0,2.237-.289,3.271,.345"/><path class="r" d="M205.3244,197.2026c.26-.685,.27-1.398,.246-2.117-.5-15.229,3.739-29.249,10.955-42.466,6.654-12.187,15.186-22.922,25.439-32.281,.291-.266,.627-.482,.943-.722,.29,.374,.277,.765,.067,1.168-.799,3.973-1.766,7.913-2.223,11.952-1.016,8.984-1.118,17.93,.984,26.798,1,.401,1.003,1.379,1.183,2.195,3.147,14.293,10.355,26.482,19.414,37.725,3.955,4.909,8.445,9.327,12.661,13.947-.116-.15-.225-.257-.333-.386-2.781-2.6-3.962-6.143-5.467-9.442-6.021-13.2-9.71-27.057-11.373-41.471-.622-5.392-.577-10.794-.588-16.201-.002-.99,.379-1.861,.576-2.788,.21-.604,.34-1.213,.363-1.862,.49-14.38,3.497-28.267,8.154-41.834,4.265-12.423,9.698-24.274,17.21-35.093,6.14-8.842,13.323-16.679,22.327-22.706,2.851-1.909,5.809-3.632,9.025-4.866,.571-.2191,1.114-.604,1.965-.357-.717,1.864-1.435,3.6899-2.123,5.528-3.693,9.863-6.928,19.872-8.896,30.234-1.373,7.235-1.682,14.552-.747,21.888-.176,4.168,.551,8.266,1.033,12.376,.463,3.952,1.077,7.89,1.948,11.812,.723-.149,.699-.771,.861-1.248,1.283-3.773,2.757-7.474,4.148-11.206,3.396-9.104,9.247-16.292,16.895-22.113,1.52-1.156,3.119-2.207,4.682-3.306,.488-.05,.742,.139,.666,.66-.969,3.863-2.319,7.636-2.954,11.577-1.077,6.688-.742,13.359,.604,19.977,.746,3.671,1.631,7.312,2.697,10.906,.135,.456,.188,.945,.679,1.355,.704-.385,.95-1.166,1.351-1.795,4.138-6.471,8.833-12.491,14.215-17.982,6.735-6.87,14.642-11.698,23.939-14.267,7.871-2.176,15.875-3.333,24.007-3.636,.363,.953-.427,1.197-.823,1.587-3.238,3.188-6.547,6.305-9.759,9.52-9.245,9.254-14.287,20.577-16.262,33.389-1.122,7.276-1.658,14.581-.926,21.934,.616,6.191,1.574,12.335,2.591,18.47,1.905,11.492,3.458,23.018,3.939,34.676,.841,20.384-3.726,39.559-12.619,57.808-5.082,10.429-10.96,20.355-18.276,29.387-1.759,2.171-3.645,4.223-5.696,6.126-.918,.851-1.877,1.291-3.189,1.289-24.944-.036-49.888-.032-74.831-.01-1.116,.001-1.935-.28-2.689-1.16-16.287-19.003-31.158-38.993-42.629-61.343-4.926-9.6-9.009-19.539-11.395-30.114-.739-3.273-1.185-6.588-1.577-9.914-.064-.549-.013-1.127-.392-1.598"/><path class="r" d="M357.1794,351.6056c.629,.607,1.217,1.265,1.895,1.811,1.927,1.556,3.703,3.273,5.46,5.011,1.608,1.592,1.614,1.623,.045,3.148-3.087,3-6.197,5.977-9.296,8.965-.402,.387-.783,.798-1.2,1.168-.669,.593-.692,1.121-.06,1.806,4.072,4.411,7.628,9.208,10.53,14.47,.56,1.014,1.074,1.101,2.069,.553,3.56-1.961,7.171-3.826,10.764-5.726,.563-.298,1.127-.596,1.693-.889,2.169-1.122,2.211-1.141,3.305,1.16,1.094,2.303,2.171,4.621,3.124,6.985,2.392,5.935,4.068,12.082,5.135,18.391,.415,2.458,.311,2.526-2.069,2.853-4.572,.63-9.142,1.277-13.712,1.929-1.599,.228-1.657,.25-1.47,1.963,.625,5.732,.619,11.458-.004,17.19-.182,1.673-.118,1.68,1.554,1.912,4.729,.657,9.46,1.308,14.188,1.975,1.754,.247,1.856,.318,1.577,2.141-1.445,9.461-4.44,18.419-8.756,26.952-.612,1.21-1.281,1.11-2.284,.565-4.132-2.242-8.291-4.435-12.44-6.647-1.935-1.031-1.951-1.04-3.046,.907-2.71,4.819-6.02,9.198-9.683,13.324-1.278,1.44-1.259,1.484,.121,2.822,3.377,3.274,6.781,6.521,10.149,9.805,1.346,1.313,1.34,1.366,.081,2.64-6.671,6.749-14.276,12.217-22.714,16.531-1.584,.81-1.632,.789-2.45-.877-2.111-4.293-4.182-8.606-6.294-12.899-.777-1.579-.839-1.628-2.284-.96-5.233,2.419-10.697,4.106-16.309,5.365-1.734,.389-1.734,.446-1.409,2.28,.819,4.629,1.651,9.256,2.471,13.885,.338,1.903,.326,1.929-1.656,2.238-9.278,1.445-18.557,1.44-27.835-.006-1.865-.291-1.867-.305-1.519-2.279,.8-4.552,1.612-9.102,2.406-13.655,.343-1.97,.277-2.108-1.717-2.549-5.539-1.227-10.941-2.871-16.053-5.358-1.187-.578-1.671-.205-2.172,.849-2.053,4.321-4.157,8.619-6.262,12.915-.913,1.866-.948,1.881-2.793,.926-8.271-4.28-15.746-9.66-22.325-16.267-1.403-1.409-1.417-1.45-.032-2.8,3.368-3.282,6.776-6.525,10.146-9.807,1.376-1.34,1.367-1.381,.104-2.853-1.089-1.27-2.223-2.501-3.338-3.749-2.355-3.31-4.81-6.558-6.684-10.181-.53-1.025-1.064-1.142-2.058-.597-3.84,2.105-7.72,4.139-11.586,6.198-.351,.188-.701,.378-1.057,.557-1.789,.901-1.78,1.574-3.097-1.084-3.378-6.816-5.921-13.922-7.492-21.371-.328-1.559-.66-3.12-.895-4.694-.289-1.93-.195-2.015,1.711-2.284,4.65-.656,9.301-1.305,13.952-1.952,1.897-.264,1.883-.256,1.674-2.23-.59-5.571-.577-11.144,.004-16.715,.195-1.876,.209-1.877-1.726-2.15-4.571-.646-9.143-1.289-13.713-1.936-2.119-.3-2.242-.417-1.875-2.602,1.545-9.181,4.386-17.942,8.601-26.247,.83-1.636,.865-1.646,2.449-.811,4.156,2.192,8.298,4.413,12.452,6.608,1.881,.993,1.911,.991,2.902-.753,2.729-4.804,5.981-9.223,9.672-13.327,1.39-1.547,1.389-1.573-.046-2.967-3.373-3.277-6.767-6.532-10.138-9.811-1.372-1.335-1.369-1.367,.034-2.764,6.659-6.632,14.167-12.097,22.537-16.367,1.677-.856,1.704-.846,2.578,.936,2.072,4.221,4.116,8.455,6.191,12.674,.847,1.722,.88,1.733,2.655,.932,5.026-2.269,10.233-3.969,15.631-5.098,2.139-.447,2.128-.489,1.742-2.674-.803-4.551-1.606-9.102-2.403-13.654-.322-1.839-.32-1.871,1.384-2.146,9.433-1.523,18.87-1.517,28.302,.009,1.664,.269,1.671,.306,1.376,1.992-.811,4.63-1.629,9.259-2.454,13.887-.372,2.092-.39,2.133,1.558,2.542,5.633,1.181,11.083,2.917,16.28,5.394,1.063,.506,1.526,.27,2.004-.736,2.053-4.318,4.164-8.609,6.27-12.902,.309-.631,.507-1.349,1.212-1.87,4.593,2.187,8.923,4.839,13.081,7.791,1.099,.78,2.057,1.773,3.337,2.289"/><path class="r" d="M300.547,305.961h36.796c.557,0,1.115-.014,1.672,.003,1.708,.054,1.749,.058,1.767,1.741,.032,3.03,.01,6.061,.01,9.091,0,2.95,.011,5.901-.004,8.851-.011,2.269-.026,2.275-2.194,2.296-1.354,.014-2.714,.083-4.06-.02-1.29-.098-1.992,.338-2.552,1.558-2.238,4.876-4.047,9.873-4.857,15.199-.048,.316-.075,.635-.14,.947-.442,2.095-1.451,2.447-3.087,1.055-1.026-.873-1.495-2.058-1.633-3.36-.312-2.931-.581-5.867-.864-8.801-.038-.397-.035-.799-.088-1.193-.559-4.147-1.022-5.525-5.951-5.438-10.43,.184-20.865,.054-31.299,.058-3.008,.001-3.88,.735-4.445,3.777-.511,2.749-.588,5.545-.81,8.323-.108,1.355-.238,2.701-.548,4.023-.221,.943-.625,1.811-1.351,2.483-.665,.616-1.468,1.102-2.363,.856-.829-.227-.748-1.184-.844-1.831-.827-5.567-2.576-10.828-4.936-15.922-.59-1.273-1.251-1.849-2.669-1.737-1.504,.117-3.026-.012-4.538,.036-1.062,.034-1.621-.272-1.616-1.463,.031-6.379,.025-12.759,.005-19.138-.003-1.015,.396-1.465,1.415-1.396,.554,.037,1.114,.002,1.672,.002h37.512"/><path class="t" d="M335.3195,81.0204c-.222-.22-.444-.44-.667-.66,.21-.367,.536-.709,.902-.355,.318,.307,.094,.729-.235,1.015"/><path class="k" d="M257.8084,143.1131c.482,.821,.231,1.715,.224,2.573-.177,22.066,4.61,42.976,14.551,62.685,.895,1.774,1.876,3.505,2.818,5.257,.158,.094,.214,.194,.169,.3-.045,.108-.093,.162-.143,.162-.509-.074-.831-.45-1.175-.768-11.086-10.266-20.378-21.891-26.851-35.638-2.349-4.987-4.083-10.191-5.322-15.559-.196-.845-.232-1.727-.343-2.591,4.683-4.808,9.365-9.619,14.052-14.424,.661-.678,1.346-1.332,2.02-1.997"/><path class="v" d="M242.9744,120.7841c-.023-.389-.045-.777-.068-1.167,.634,.212,.635,.221,.068,1.167"/><path class="k" d="M335.6856,176.7147c10.067,15.401,14.556,32.142,12.599,50.599-1.239,11.689-5.888,21.868-12.584,31.288-.46,.106-.698-.007-.522-.529,1.516-5.77,3.041-11.533,4.098-17.416,2.087-11.619,2.307-23.26,.922-34.974-1.133-9.581-3.022-19.015-5.066-28.427-.145-.518,.096-.64,.553-.541"/><path class="k" d="M291.4642,297.362c.059-.685,.079-1.074,.129-1.46,1.412-10.926-.607-21.262-5.389-31.106-4.857-9.997-11.602-18.648-19.156-26.708-3.437-3.667-6.741-7.442-9.642-11.555-.686-.972-1.317-1.984-2.131-3.216,1.168,.055,1.771,.697,2.439,1.14,7.032,4.66,12.932,10.573,18.597,16.76,4.637,5.065,8.928,10.375,12.653,16.168,3.645,5.668,5.904,11.8,6.939,18.419,1.01,6.468,1.586,12.974,1.583,19.524-.001,1.991-.015,2.002-1.931,2.03-1.333,.02-2.667,.004-4.091,.004"/><path class="p" d="M335.6856,176.7147c-.184,.18-.369,.361-.553,.541-.118-.201-.277-.389-.343-.606-.09-.295-.221-.718,.086-.87,.329-.163,.492,.259,.66,.495,.085,.122,.102,.292,.15,.44"/><path class="g" d="M335.1791,258.0723c.174,.176,.347,.353,.521,.529-.163,.317-.327,.633-.49,.95-.189,.196-.378,.196-.568,.002,.053-.54,.117-1.075,.537-1.481"/><path class="l" d="M334.6423,259.5528c.189,0,.378-.001,.568-.001-.097,.367-.301,.8-.68,.669-.359-.124-.134-.469,.112-.668"/><path class="d" d="M275.4275,214.0906c-.056-.152-.065-.306-.026-.463,.253,.141,.514,.369,.355,.633-.165,.275-.281,.024-.329-.17"/><path class="k" d="M352.836,444.3043c-11.894-6.876-23.519-13.597-35.54-20.548,11.998-6.931,23.618-13.642,35.516-20.515,5.157,13.693,5.135,27.155,.024,41.063"/><path class="k" d="M283.3779,423.7568c-12.102,6.994-23.726,13.711-35.543,20.54-5.123-13.828-5.139-27.315,.009-41.06,11.835,6.834,23.468,13.552,35.534,20.52"/><path class="k" d="M308.9879,479.495v-40.926c11.841,6.839,23.462,13.55,35.367,20.426-9.343,11.261-20.953,18.056-35.367,20.5"/><path class="k" d="M291.398,438.7292c.613,.868,.402,1.602,.403,2.287,.015,11.956,.011,23.912,.01,35.868,0,.319,.011,.638-.004,.956-.071,1.558-.182,1.698-1.657,1.411-13.387-2.612-24.49-9.126-33.26-19.598-.144-.171-.19-.425-.347-.791,11.626-6.715,23.243-13.425,34.855-20.133"/><path class="k" d="M309.1551,408.8512c-.427-.91-.307-1.555-.307-2.182-.008-12.038-.006-24.076-.005-36.114,0-.478,.014-.957,.011-1.435-.004-.712,.336-1.023,1.041-.898,.861,.153,1.725,.29,2.578,.482,12.38,2.787,22.656,9.07,30.915,18.692,.253,.294,.457,.632,.846,1.177-11.702,6.764-23.304,13.471-35.079,20.278"/><path class="k" d="M256.3207,388.5198c1.077-1.234,1.926-2.274,2.845-3.248,8.281-8.776,18.337-14.373,30.141-16.825,.466-.097,.942-.148,1.413-.223,.681-.108,1.068,.145,1.075,.871,.003,.319,.016,.637,.016,.956,0,12.428,.001,24.856-.004,37.284,0,.391-.058,.782-.124,1.603-11.817-6.823-23.415-13.52-35.362-20.418"/><path class="r" d="M323.8438,423.5625c9.049-5.229,18.031-10.419,27.271-15.759,3.258,10.717,3.168,21.092,.17,31.516-1.799-.423-25.415-13.973-27.441-15.757"/><path class="r" d="M249.5455,439.7196c-3.243-10.736-3.235-21.148-.002-31.921,9.253,5.347,18.231,10.537,27.606,15.955-9.362,5.415-18.344,10.61-27.604,15.966"/><path class="r" d="M339.5237,459.8008c-4.935,5.345-10.449,9.308-16.696,12.268-2.953,1.4-6.027,2.487-9.189,3.301-1.514,.391-1.749,.227-1.752-1.238-.016-9.797,0-19.595,.016-29.392,0-.13,.132-.26,.363-.689,8.988,5.193,17.968,10.382,27.258,15.75"/><path class="r" d="M261.116,459.8224c9.277-5.364,18.22-10.534,27.199-15.725,.548,1.759,.698,28.265,.187,31.58-10.668-2.401-19.578-7.689-27.386-15.855"/><path class="r" d="M339.3024,387.8525c-8.978,5.185-17.973,10.381-26.909,15.541-.749-.549-.507-1.152-.508-1.659-.016-9.161-.016-18.321-.009-27.482,.002-2.508,.047-2.549,2.338-1.926,9.266,2.52,17.271,7.207,24.019,14.046,.279,.282,.552,.572,.805,.877,.095,.114,.127,.28,.264,.603"/><path class="r" d="M261.1315,387.7241c5.013-5.394,10.579-9.406,16.922-12.361,2.891-1.347,5.888-2.403,8.973-3.196,1.499-.385,1.732-.218,1.734,1.252,.015,9.795,0,19.59-.016,29.385,0,.129-.133,.258-.349,.654-8.991-5.189-17.977-10.374-27.264-15.734"/></g></svg>